{
  "title": "Gods of Egypt (2016) TS v2 | Rus",
  "uid": 13708058,
  "size": 1462224096,
  "categoryP": "video",
  "categoryS": "movies",
  "magnet": "?xt=urn:btih:680793b15c2d5910c0b7d91f5556f593ef9303db&amp;dn=Gods+of+Egypt+%282016%29+TS+v2+%7C+Rus&amp;tr=udp%3A%2F%2Ftracker.leechers-paradise.org%3A6969&amp;tr=udp%3A%2F%2Fzer0day.ch%3A1337&amp;tr=udp%3A%2F%2Fopen.demonii.com%3A1337&amp;tr=udp%3A%2F%2Ftracker.coppersurfer.tk%3A6969&amp;tr=udp%3A%2F%2Fexodus.desync.com%3A6969",
  "seeders": 180,
  "leechers": 2,
  "uploader": "nbdjod",
  "files": 1,
  "time": 1456843388,
  "description": "Gods of Egypt (2016) TS v2 | Rus\r\n\r\nMI:\r\nGeneral\r\nFormat                         : AVI\r\nFormat/Info                    : Audio Video Interleave\r\nFile size                      : 1.36 GiB\r\nDuration                       : 1h 56mn\r\nOverall bit rate               : 1 678 Kbps\r\nWriting application            : VirtualDubMod 1.5.10.3 | www.virtualdub-fr.org || (build 2550/release)\r\nWriting library                : VirtualDub build 35576/release\r\n\r\nVideo\r\nID                             : 0\r\nFormat                         : MPEG-4 Visual\r\nFormat profile                 : Advanced   \r\nFormat settings, BVOP          : 2\r\nFormat settings, QPel          : No\r\nFormat settings, GMC           : No warppoints\r\nFormat settings, Matrix        : Default (H.263)\r\nMuxing mode                    : Packed bitstream\r\nCodec ID                       : XVID\r\nCodec ID/Hint                  : XviD\r\nDuration                       : 1h 56mn\r\nBit rate                       : 1 539 Kbps\r\nWidth                          : 720 pixels\r\nHeight                         : 352 pixels\r\nDisplay aspect ratio           : 2.045\r\nFrame rate                     : 29.970 (30000/1001) fps\r\nColor space                    : YUV\r\nChroma subsampling             : 4:2:0\r\nBit depth                      : 8 bits\r\nScan type                      : Progressive\r\nCompression mode               : Lossy\r\nBits/(Pixel*Frame)             : 0.203\r\nStream size                    : 1.25 GiB (92%)\r\nWriting library                : XviD 73\r\n\r\nAudio\r\nID                             : 1\r\nFormat                         : MPEG Audio\r\nFormat version                 : Version 1\r\nFormat profile                 : Layer 3\r\nMode                           : Joint stereo\r\nMode extension                 : MS Stereo\r\nCodec ID                       : 55\r\nCodec ID/Hint                  : MP3\r\nDuration                       : 1h 56mn\r\nBit rate mode                  : Constant\r\nBit rate                       : 128 Kbps\r\nChannel(s)                     : 2 channels\r\nSampling rate                  : 48.0 KHz\r\nCompression mode               : Lossy\r\nStream size                    : 106 MiB (8%)\r\nAlignment                      : Split accross interleaves\r\nInterleave, duration           : 33 ms (1.00 video frame)\r\nInterleave, preload duration   : 500 ms\r\n\r\n\r\n\r\nScreens: \nhttp://i5.imageban.ru/out/2016/03/01/7161d06f621518a06c42537e160f7fc6.png \nhttp://i1.imageban.ru/out/2016/03/01/c1d7d3ed49d8124d629f882647fa9cd8.png \nhttp://i2.imageban.ru/out/2016/03/01/3980a12e3fcde9b0a88130806a79e800.png \nhttp://i2.imageban.ru/out/2016/03/01/3f9ec58ae0f05d7885a125fca3dbf78e.png \nhttp://i2.imageban.ru/out/2016/03/01/8b3445e985a6275e7952ef2d77a45544.png \nhttp://i6.imageban.ru/out/2016/03/01/afcdc38475c632f11ec4a29da69c7dac.png \nhttp://i6.imageban.ru/out/2016/03/01/2d414ce9f6084d8cc9896343ce81d6c6.png \nhttp://i6.imageban.ru/out/2016/03/01/9f54e73f9b5e43e94bad714fd9dc57de.png \nhttp://i1.imageban.ru/out/2016/03/01/6a0868ccce3d8cdf0a3f95797581c055.png",
  "parsed": {
    "xt": "urn:btih:680793b15c2d5910c0b7d91f5556f593ef9303db",
    "dn": "Gods of Egypt (2016) TS v2 | Rus",
    "tr": [
      "udp://exodus.desync.com:6969",
      "udp://open.demonii.com:1337",
      "udp://tracker.coppersurfer.tk:6969",
      "udp://tracker.leechers-paradise.org:6969",
      "udp://zer0day.ch:1337"
    ],
    "infoHash": "680793b15c2d5910c0b7d91f5556f593ef9303db",
    "infoHashBuffer": {
      "type": "Buffer",
      "data": [
        104,
        7,
        147,
        177,
        92,
        45,
        89,
        16,
        192,
        183,
        217,
        31,
        85,
        86,
        245,
        147,
        239,
        147,
        3,
        219
      ]
    },
    "name": "Gods of Egypt (2016) TS v2 | Rus",
    "announce": [
      "udp://exodus.desync.com:6969",
      "udp://open.demonii.com:1337",
      "udp://tracker.coppersurfer.tk:6969",
      "udp://tracker.leechers-paradise.org:6969",
      "udp://zer0day.ch:1337"
    ],
    "urlList": []
  },
  "previous": 213,
  "peers": 93,
  "last_updated": "2016-12-27T02:38:22.449Z"
}